<svg xmlns="http://www.w3.org/2000/svg" viewBox="0 0 24 24" fill="currentColor">
    <path d="M16.402 14.345H7.547V8.252h8.833v6.093zm-8.548-.307h8.24V8.56h-8.24Z"/>
    <path d="m21.837 11.934-.35-2.717c-.11-.877-.067-1.403-.461-1.688-.307-.22-.482-.044-1.315-.197-.701-.132-1.227-.395-1.775-.658a6.124 6.124 0 0 1-.745-.438.237.237 0 0 0-.154-.066H6.934a.199.199 0 0 0-.154.066c-.197.131-.394.263-.745.438-.548.263-1.074.526-1.775.658-.833.153-1.008-.022-1.315.197-.395.285-.438 1.074-.548 1.95l-.263 2.477c-.285 2.63-.066 3.068.197 3.397.307.373.745.526 1.03.592.395.088.986.263 1.71.504.81.285 1.359.526 1.534.592.767.329 2.104.68 4.646.789h1.491c2.542-.11 3.879-.46 4.624-.79.175-.065.723-.328 1.534-.591a21.517 21.517 0 0 1 1.71-.504c.284-.066.7-.22 1.03-.592.263-.35.548-.789.197-3.419zm-16.876-.68v.768a.141.141 0 0 1-.131.131h-.57a.141.141 0 0 1-.132-.131v-.767h-.767a.141.141 0 0 1-.131-.132v-.57c0-.065.066-.131.131-.131h.767v-.767c0-.066.066-.132.132-.132h.57c.065 0 .131.066.131.132v.767h.767c.066 0 .132.066.132.132v.57a.141.141 0 0 1-.132.13zm.877 3.836a.3.3 0 0 1-.307-.307.3.3 0 0 1 .307-.306.3.3 0 0 1 .307.306.313.313 0 0 1-.307.307zm0-1.161a.3.3 0 0 1-.307-.307.3.3 0 0 1 .307-.307.3.3 0 0 1 .307.307c-.022.153-.154.307-.307.307zm10.98 1.731a.674.674 0 0 1-.263.11c-1.052.372-2.652.767-4.624.789a15.128 15.128 0 0 1-4.625-.79c-.066-.021-.153-.043-.263-.109-.394-.285-.394-.92-.372-1.534.022-.986.043-1.49.087-2.082.066-.877.066-1.271.176-2.455.11-1.38.153-1.49.263-1.622.306-.372.767-.416 2.783-.548 1.205-.065 1.863-.11 1.95-.11.088 0 .746.045 1.973.11 2.016.132 2.477.176 2.783.548.11.132.154.241.263 1.622.088 1.184.11 1.578.176 2.455.044.592.044 1.074.087 2.082 0 .614 0 1.25-.394 1.534zm1.534-7.627c.11 0 .197.088.197.197 0 .11-.087.198-.197.198a.196.196 0 0 1-.197-.198c.022-.11.11-.197.197-.197zm0 2.674c.35 0 .614.285.614.636 0 .35-.285.613-.614.613a.632.632 0 0 1-.635-.613c.021-.351.306-.636.635-.636zm1.403 4.186L18 15.55h-.043a.12.12 0 0 1-.11-.065c-.022-.066 0-.11.066-.132l1.753-.657c.066-.022.11 0 .132.065.043.044.022.11-.044.132zm0-.438L18 15.112h-.043a.12.12 0 0 1-.11-.066c-.022-.065 0-.11.066-.131l1.753-.658c.066-.022.11 0 .132.066.043.044.022.11-.044.132zm0-.439L18 14.674h-.043a.12.12 0 0 1-.11-.066c-.022-.066 0-.11.066-.131l1.753-.658c.066-.022.11 0 .132.066.043.044.022.11-.044.131zm0-.46L18 14.214h-.043a.12.12 0 0 1-.11-.066c-.022-.066 0-.11.066-.132l1.753-.657c.066-.022.11 0 .132.066.043.043.022.11-.044.131zm0-.46L18 13.753h-.043a.12.12 0 0 1-.11-.065c-.022-.066 0-.11.066-.132l1.753-.657c.066-.022.11 0 .132.065.043.044.022.11-.044.132zm.438-1.753a.636.636 0 0 1-.635-.636c0-.35.284-.614.635-.614.35 0 .614.285.614.614 0 .35-.263.636-.614.636z"/>
</svg>