<svg xmlns="http://www.w3.org/2000/svg" viewBox="0 0 24 24" fill="currentColor">
    <path d="M11.852 2.249a.1.1 0 0 0-.026.005l-2.687.944a.1.1 0 0 0-.073.05L7.602 5.93a.1.1 0 0 0-.069-.03.1.1 0 0 1 .012 0l-2.77-1.038a.1.1 0 0 0-.039-.008.1.1 0 0 0-.013.002.1.1 0 0 0-.014.004l-2.682.885a.1.1 0 0 0-.068.082.1.1 0 0 0-.002.013v11.735a.1.1 0 0 0 .063.092l2.78 1.14a.1.1 0 0 0 .087.004l2.601-1.066 1.52 2.765a.1.1 0 0 0 .049.043l2.896 1.188a.1.1 0 0 0 .082.004l2.92-1.2a.1.1 0 0 0 .063-.091v-3.829l.783 1.038a.1.1 0 0 0 .047.033l3.232 1.12.002.003a.1.1 0 0 0 .086.004l2.813-1.156a.1.1 0 0 0 .062-.094V5.84a.1.1 0 0 0-.08-.097L19.166 4.72a.1.1 0 0 0-.049-.006.1.1 0 0 0-.023.006l-2.885 1.197a.1.1 0 0 0-.002 0 .1.1 0 0 0-.045.028l-1.46 1.506V3.315a.1.1 0 0 0-.067-.121l-2.744-.94a.1.1 0 0 0-.04-.005zm.007.207 2.453.84-2.351.92-2.512-.917Zm-2.658.964 2.615.955-2.271 3.907-.647.26-1.185-2.399Zm9.934 1.502 2.531.924-2.691 1.102-2.47-.936zm-14.397.139 2.52.943-2.281.922-2.63-1.074Zm-2.582.928 2.746 1.125 3.914 7.59a.1.1 0 0 0 .19-.045V8.795l2.892 1.186v11.521l-2.732-1.12-4.23-7.696a.1.1 0 0 0-.106-.05.1.1 0 0 0-.082.099v5.834l-2.592-1.063zm14.104.142 2.615.993v6.843l-3.766-5.35a.1.1 0 0 0-.054-.038l-.832-.344Zm-4.293 1.397 2.797 1.146-2.766 1.133-2.826-1.16.476-.19ZM9 8.745a.1.1 0 0 1 .006.023A.1.1 0 0 0 9 8.745zm6.018 4.83 3.824 4.949-2.9-1.008-.924-1.223zm-10.27 5.144a.1.1 0 0 0 .004.028.1.1 0 0 1-.004-.028z"/>
</svg>