<svg xmlns="http://www.w3.org/2000/svg" viewBox="0 0 24 24" fill="currentColor">
    <path d="M13.632 14.563c.765.306 2.381.55 3.643.55 1.38 0 1.951-.47 1.951-1.065 0-.541-.53-.848-2.054-1.407-2.039-.75-3.534-1.345-3.534-2.69 0-1.38 1.8-2.2 4.542-2.2 1.472 0 1.977.09 2.912.26L21.1 9.33c-.918-.171-1.732-.47-2.996-.47-1.355 0-1.933.434-1.933.876 0 .64.89.948 2.45 1.507 2.172.776 3.38 1.372 3.38 2.68 0 1.353-1.513 2.328-4.926 2.328-1.401 0-2.367-.09-3.442-.27v-1.417M6.368 8.914H4.744v6.154h1.624c2.493 0 4.066-1.074 4.066-3.068S8.861 8.914 6.368 8.914zm4.36 6.722c-.804.361-2.323.596-3.652.596H2V7.768h5.076c1.329 0 2.848.235 3.653.596 1.955.884 2.592 2.3 2.592 3.636 0 1.335-.631 2.752-2.594 3.636"/>
</svg>