<?xml version="1.0" encoding="UTF-8"?>
<svg id="Layer_1" xmlns="http://www.w3.org/2000/svg" version="1.1" viewBox="0 0 851.66 266">
  <!-- Generator: Adobe Illustrator 29.6.1, SVG Export Plug-In . SVG Version: 2.1.1 Build 9)  -->
  <defs>
    <style>
      .st0 {
        fill: #f4b576;
      }

      .st1 {
        fill: #593514;
      }

      .st2 {
        fill: #9e6430;
      }

      .st3 {
        isolation: isolate;
      }
    </style>
  </defs>
  <g id="cod">
    <g class="st3">
      <g class="st3">
        <path class="st0" d="M73.69,193.11c-22.05,0-39.08-5.8-51.09-17.39-12-11.6-18.01-28.26-18.01-49.99s5.68-37.6,17.03-49.32,27.57-17.58,48.65-17.58c12.61,0,23.42,2.34,32.41,7.02,8.99,4.68,15.4,11.29,19.23,19.84l-19.9,15.01c-3.66-5.94-8.34-10.54-14.04-13.79-5.7-3.25-11.92-4.88-18.68-4.88-12.21,0-21.69,3.68-28.44,11.05-6.76,7.37-10.13,17.84-10.13,31.43,0,14.73,3.97,25.98,11.9,33.75,7.93,7.77,19.27,11.66,34,11.66,6.02,0,12.04-.28,18.07-.85,6.02-.57,11.88-1.34,17.58-2.32l2.93,22.71c-6.67,1.46-13.57,2.44-20.69,2.93-7.12.49-14.06.73-20.81.73Z"/>
        <path class="st0" d="M207.73,193.11c-17.9,0-31.82-5.86-41.75-17.58-9.93-11.72-14.89-28.24-14.89-49.56s4.96-37.94,14.89-49.62c9.93-11.68,23.84-17.52,41.75-17.52s31.92,5.84,41.81,17.52,14.83,28.22,14.83,49.62-4.94,37.84-14.83,49.56-23.82,17.58-41.81,17.58ZM207.73,169.92c9.52,0,16.86-3.82,22.03-11.47,5.17-7.65,7.75-18.47,7.75-32.47s-2.58-24.92-7.75-32.53c-5.17-7.61-12.51-11.41-22.03-11.41s-16.87,3.8-22.03,11.41c-5.17,7.61-7.75,18.45-7.75,32.53s2.58,24.82,7.75,32.47c5.17,7.65,12.51,11.47,22.03,11.47Z"/>
        <path class="st0" d="M344.32,193.11c-16.93,0-29.77-5.57-38.51-16.72-8.75-11.15-13.12-27.55-13.12-49.19s4.37-39.47,13.12-51.03c8.75-11.55,21.59-17.33,38.51-17.33,9.68,0,17.56,2.28,23.62,6.84,6.06,4.56,9.62,10.91,10.68,19.04h10.01l-7.57,36.87c0-13.35-2.62-23.48-7.87-30.4-5.25-6.92-12.96-10.38-23.13-10.38s-18.31,3.91-23.68,11.72-8.06,19.37-8.06,34.67c0,14.49,2.69,25.43,8.06,32.84,5.37,7.41,13.26,11.11,23.68,11.11s17.88-3.46,23.13-10.38c5.25-6.92,7.87-17.05,7.87-30.4l8.79,36.87h-11.23c-.81,8.14-4.25,14.49-10.31,19.04-6.06,4.56-14.06,6.84-23.99,6.84ZM383.75,191.89l-2.69-25.39V7.56h25.88v183.11l-23.19,1.22Z"/>
      </g>
    </g>
  </g>
  <g id="face_features">
    <g id="dogbody">
      <path class="st0" d="M478.93,75.65c-11.79,4.66-22.89,14.38-28.39,24.84-6.72,12.78-10.64,25.63-11.25,39.91-.55,12.79-22.33,30.82-15.96,39.45,7.17,9.71,43.61,12.02,58.77,12.87,17.51.98,37.96,2.43,70.17,3.98,27,1.3,54.6,9.41,102.85,9.41,19.89,0,42.73-1.83,62.25-5.9,34.43-7.17,62.9-17.35,72.83-15.67,6.81,1.15,18.44,3.61,19.26,14.96,1.13,15.67-10.02,23.63-26.17,29.47-8.37,3.03-18.33,4.94-27.56,4.39-9.7-.58-19.96-2.34-29.34,2.9-1.87,1.05-1.98,2.02-.78,3.75,5.71,8.24,27.07,14.59,34.43,15.59,12.27,1.67,22.96,1.93,33.02-.95,13.14-3.61,24.27-13.14,32.65-23.19,6.47-7.39,9.59-11.09,13.05-24.41,2.31-8.87,4.4-10.27,5.98-28.41,2.94-33.95,8.29-66.73-5.55-92.84-5.49-8.96-14.91-10.77-26.06-12.78-12.93-1.91-27.68-.54-40.13,2.04-13.92,3.18-28.2,7.2-42.87,8.09-34.09,2.56-50.71-12.08-82.25-9.13-9.06.73-21.49,5.59-29.81,8.54-3.83,1.3-7.82,2.66-12.31,3.92-11.56,2.99-28.6,7.29-38.88,1.93-4.59-3.24-3.53-7.55-3.36-14.56.32-4.75.91-10.11,1.37-15.53.81-9.13,1.16-20.33.98-30.28-.24-5.05.16-10.08-1.26-14.88-2.06-6.43-11.11-6.27-15.79-2.19-2,1.69-3.47,3.93-4.72,6.18-5.02,9.1-11.02,24.25-14.85,35.95-2.74,8.36-5.63-39.69-17.21-39.95-1.32.04-26.94,20.92-21.47,26.24,9,8.73,19.07-12.52,20.22-5.79,1.76,10.36-.66,36.89-2.33,36.98-6.67.32-23.2,2.45-29.35,5l-.18.07h0Z"/>
    </g>
  </g>
  <g id="dog">
    <path class="st2" d="M488.24,79.72c-18.54,3.91-42.2,29.79-38.2,68.3,2.02,19.48,17.31,34.43,34.25,38.49,7.82,1.88,17.15,2.56,25.44,2.67,11.44.35,19.04-7.86,22.97-18.18,6.61-17.84,8.75-36.73,12.27-55.2,1.78-10.04,3.44-20,5.38-30.01,3.35-17.44,8.04-38.31,9.47-56.56.18-5.17.08-17.27-5.73-13.85-7.91,6.11-9.92,17.44-12.84,26.16-3.5,10.91-6.64,25.73-14.88,34.28-6,6.22-22.25.55-38.13,3.9h0Z"/>
    <path class="st2" d="M588.28,137.05c-1.16,27.5,10.01,59.04,61.84,61.19,18.03.75,39.54,1.4,51.51-11.38,17.52-18.7,18.78-52.14,11.71-67.67-7.85-17.26-17.85-34.63-45.18-35.96-33.48-1.63-78.19,13.81-79.89,53.83h0Z"/>
    <path class="st2" d="M807.74,221.96c-3.65,3.91-27.84,20.61-54.67,15.48-5.49-1.05-15.37-.43-22.45.52-1.29.17-1.55,1.92-.38,2.46,26.68,12.33,57.65,17.51,79.79-1.65,3.38-2.93,22.19-15.44,26.37-43.39,3.18-21.28,4.87-34.23,5.42-58.91.24-10.62-3.56-31.35-7.24-38.88-1.72-3.52-10.03-13.68-19.6-15.62-10.4-2.11-24.26-2.63-37.32,1.12-34.84,10-35.12,75.2-8.09,87.41,22.13,10,44.88,4.98,47.61,21.64,2.63,16.07-3.19,23.1-9.44,29.8v.02Z"/>
  </g>
  <g id="Layer_6">
    <path class="st1" d="M458.32,131.61c-.7,1.69-.47,3.86.59,5.57s2.93,2.89,4.78,3.04c1.53.12,2.97-.41,4.33-.97,2.43-.99,4.81-2.09,7.02-3.48.68-.43,1.35-.89,1.9-1.48,1.77-1.91,1.89-5.49-.13-7.6-1.37-1.42-3.35-1.91-5.17-1.99-2.62-.11-5.74.39-7.74,1.99s-4.55,2.42-5.58,4.91h0Z"/>
  </g>
</svg>